<svg width="35" height="35" viewBox="0 0 35 35" fill="none" xmlns="http://www.w3.org/2000/svg">
<path d="M9.80737 30.625L9.47925 28.2187L14.1095 15.4583C14.3768 15.7257 14.6746 15.9444 15.0027 16.1146C15.3308 16.2847 15.6772 16.4306 16.0417 16.5521L11.5574 28.9115L9.80737 30.625ZM25.1928 30.625L23.4428 28.9115L18.8855 16.5885C19.2501 16.467 19.6025 16.3212 19.9428 16.151C20.2831 15.9809 20.5869 15.7622 20.8542 15.4948L25.5209 28.2187L25.1928 30.625ZM17.5001 16.0417C16.2848 16.0417 15.2518 15.6163 14.4011 14.7656C13.5504 13.9149 13.1251 12.8819 13.1251 11.6667C13.1251 10.6458 13.4228 9.74045 14.0183 8.95052C14.6138 8.16059 15.4098 7.65625 16.4063 7.4375V4.375H18.5938V7.4375C19.5904 7.65625 20.3864 8.16059 20.9819 8.95052C21.5773 9.74045 21.8751 10.6458 21.8751 11.6667C21.8751 12.8819 21.4497 13.9149 20.599 14.7656C19.7483 15.6163 18.7154 16.0417 17.5001 16.0417ZM17.5001 13.8542C18.1077 13.8542 18.6242 13.6415 19.0496 13.2161C19.4749 12.7908 19.6876 12.2743 19.6876 11.6667C19.6876 11.059 19.4749 10.5425 19.0496 10.1172C18.6242 9.69184 18.1077 9.47917 17.5001 9.47917C16.8924 9.47917 16.3759 9.69184 15.9506 10.1172C15.5253 10.5425 15.3126 11.059 15.3126 11.6667C15.3126 12.2743 15.5253 12.7908 15.9506 13.2161C16.3759 13.6415 16.8924 13.8542 17.5001 13.8542Z" fill="white"/>
</svg>
