<svg width="29" height="29" viewBox="0 0 29 29" fill="none" xmlns="http://www.w3.org/2000/svg">
<path d="M22.6864 10.9958L18.0041 6.31354L20.1187 4.19896C20.4611 3.8566 20.884 3.68542 21.3875 3.68542C21.8909 3.68542 22.3138 3.8566 22.6562 4.19896L24.801 6.34375C25.1434 6.68611 25.3145 7.10903 25.3145 7.6125C25.3145 8.11597 25.1434 8.53889 24.801 8.88125L22.6864 10.9958ZM3.62495 25.375V20.6625L9.48537 14.8021L2.80933 8.09583L8.06558 2.77917L14.802 9.51563L18.0041 6.31354L22.6864 10.9958L19.4843 14.1979L26.2208 20.9344L20.9343 26.1604L14.2281 19.4844L8.33745 25.375H3.62495ZM10.7843 13.5031L13.5031 10.7844L11.2979 8.57917L9.84787 10.0292L8.57912 8.76042L10.0291 7.31042L8.09578 5.37708L5.37703 8.09583L10.7843 13.5031ZM20.8739 23.6229L23.5927 20.9042L21.6593 18.9708L20.2093 20.4208L18.9406 19.1521L20.3906 17.7021L18.1854 15.4969L15.4666 18.2156L20.8739 23.6229ZM5.43745 23.5625H7.55203L20.0885 11.026L17.9739 8.91146L5.43745 21.4479V23.5625Z" fill="white"/>
</svg>
