<svg width="600" height="400" viewBox="0 0 600 400" fill="none" xmlns="http://www.w3.org/2000/svg">
<rect width="600" height="400" fill="#B8B8B8"/>
<path d="M358.333 125H241.667C232.462 125 225 132.462 225 141.667V258.333C225 267.538 232.462 275 241.667 275H358.333C367.538 275 375 267.538 375 258.333V141.667C375 132.462 367.538 125 358.333 125Z" stroke="white" stroke-width="2" stroke-linecap="round" stroke-linejoin="round"/>
<path d="M270.833 183.333C277.737 183.333 283.333 177.737 283.333 170.833C283.333 163.93 277.737 158.333 270.833 158.333C263.93 158.333 258.333 163.93 258.333 170.833C258.333 177.737 263.93 183.333 270.833 183.333Z" stroke="white" stroke-width="2" stroke-linecap="round" stroke-linejoin="round"/>
<path d="M375 225L333.333 183.333L241.667 275" stroke="white" stroke-width="2" stroke-linecap="round" stroke-linejoin="round"/>
</svg>
