<svg width="157" height="35" viewBox="0 0 157 35" fill="none" xmlns="http://www.w3.org/2000/svg">
<path d="M58.6915 15.8842C58.6915 16.675 58.5937 17.3814 58.3983 18.0034C58.2028 18.6254 57.9362 19.1763 57.5986 19.6561C57.2698 20.1271 56.8877 20.5313 56.4523 20.869C56.0169 21.2066 55.5593 21.4821 55.0795 21.6953C54.6086 21.9086 54.1288 22.0641 53.6401 22.1618C53.1602 22.2596 52.7071 22.3084 52.2806 22.3084H44.4436V18.8431H52.2806C52.7249 18.8076 53.1247 18.7187 53.4801 18.5765C53.8444 18.4255 54.1554 18.2256 54.4131 17.9768C54.6708 17.728 54.8707 17.4303 55.0129 17.0838C55.155 16.7283 55.2261 16.3285 55.2261 15.8842V14.3115C55.1817 13.8761 55.0884 13.4762 54.9462 13.1119C54.8041 12.7476 54.6086 12.4366 54.3598 12.179C54.1199 11.9213 53.8267 11.7214 53.4801 11.5792C53.1336 11.4281 52.7337 11.3526 52.2806 11.3526H44.4702C44.0082 11.3526 43.6572 11.4726 43.4173 11.7125C43.1774 11.9524 43.0574 12.2989 43.0574 12.7521V27H39.5921V12.7521C39.5921 11.8635 39.752 11.1083 40.0719 10.4863C40.4006 9.86429 40.8049 9.36226 41.2848 8.98018C41.7735 8.5981 42.3021 8.32265 42.8708 8.15383C43.4395 7.97612 43.9637 7.88726 44.4436 7.88726H52.2806C53.0625 7.88726 53.7645 7.98945 54.3864 8.19381C55.0084 8.38929 55.5549 8.65586 56.0258 8.99351C56.5056 9.32227 56.9099 9.70435 57.2387 10.1397C57.5763 10.5751 57.8518 11.0327 58.065 11.5126C58.2872 11.9835 58.4471 12.4633 58.5449 12.952C58.6426 13.4318 58.6915 13.885 58.6915 14.3115V15.8842ZM73.8057 16.0575H66.0087C65.5378 16.0575 65.1823 16.1774 64.9424 16.4174C64.7025 16.6484 64.5826 16.9905 64.5826 17.4436V27H61.1172V17.4436C61.1172 16.8483 61.1928 16.3152 61.3438 15.8442C61.4949 15.3733 61.6948 14.9601 61.9436 14.6047C62.2013 14.2404 62.4945 13.9339 62.8232 13.6851C63.152 13.4274 63.4941 13.2186 63.8495 13.0586C64.2138 12.8987 64.5781 12.7832 64.9424 12.7121C65.3156 12.6321 65.6622 12.5921 65.982 12.5921H73.8057V16.0575ZM91.5457 17.3637C91.5457 17.8435 91.4612 18.3633 91.2924 18.9231C91.1236 19.474 90.8481 19.9893 90.4661 20.4691C90.0929 20.9401 89.5997 21.3355 88.9866 21.6554C88.3824 21.9752 87.6449 22.1352 86.7741 22.1352H80.5232V18.8431H86.7741C87.2451 18.8431 87.6094 18.7009 87.8671 18.4166C88.1247 18.1234 88.2536 17.7635 88.2536 17.337C88.2536 16.8838 88.107 16.5284 87.8137 16.2707C87.5294 16.0131 87.1829 15.8842 86.7741 15.8842H80.5232C80.0522 15.8842 79.6879 16.0308 79.4303 16.3241C79.1726 16.6084 79.0437 16.9638 79.0437 17.3903V22.2285C79.0437 22.6905 79.1859 23.0504 79.4702 23.3081C79.7635 23.5657 80.1233 23.6946 80.5498 23.6946H86.7741V27H80.5232C80.0434 27 79.5236 26.9156 78.9638 26.7468C78.4129 26.5779 77.8975 26.3069 77.4177 25.9337C76.9468 25.5517 76.5514 25.0585 76.2315 24.4543C75.9116 23.8412 75.7517 23.0993 75.7517 22.2285V17.3637C75.7517 16.8838 75.8361 16.3685 76.0049 15.8176C76.1737 15.2578 76.4447 14.7424 76.8179 14.2715C77.2 13.7917 77.6931 13.3918 78.2974 13.072C78.9105 12.7521 79.6524 12.5921 80.5232 12.5921H86.7741C87.254 12.5921 87.7693 12.6766 88.3202 12.8454C88.88 13.0142 89.3954 13.2897 89.8663 13.6717C90.3461 14.0449 90.746 14.5381 91.0658 15.1512C91.3857 15.7554 91.5457 16.4929 91.5457 17.3637ZM100.209 27H98.663C98.1654 27 97.6322 26.9156 97.0636 26.7468C96.5038 26.5779 95.9795 26.3025 95.4908 25.9204C95.0021 25.5294 94.5978 25.0274 94.278 24.4143C93.9581 23.7923 93.7981 23.0326 93.7981 22.1352V6.50112H97.2635V22.1352C97.2635 22.5617 97.3968 22.9038 97.6633 23.1615C97.9299 23.4103 98.2631 23.5347 98.663 23.5347H100.209V27ZM118.109 22.1352C118.109 22.7305 118.033 23.2681 117.882 23.7479C117.731 24.2188 117.531 24.6365 117.283 25.0008C117.034 25.3562 116.745 25.6627 116.416 25.9204C116.087 26.1692 115.741 26.3736 115.377 26.5335C115.021 26.6934 114.657 26.8134 114.284 26.8934C113.919 26.9645 113.573 27 113.244 27H106.993C106.513 27 105.989 26.9156 105.42 26.7468C104.852 26.5779 104.323 26.3025 103.834 25.9204C103.355 25.5294 102.95 25.0274 102.621 24.4143C102.302 23.7923 102.142 23.0326 102.142 22.1352V17.4436C102.142 16.5551 102.302 15.8043 102.621 15.1912C102.95 14.5692 103.355 14.0671 103.834 13.6851C104.323 13.2941 104.852 13.0142 105.42 12.8454C105.989 12.6766 106.513 12.5921 106.993 12.5921H113.244C114.133 12.5921 114.888 12.7521 115.51 13.072C116.132 13.3918 116.634 13.7961 117.016 14.2848C117.398 14.7646 117.674 15.2889 117.842 15.8576C118.02 16.4262 118.109 16.9549 118.109 17.4436V22.1352ZM114.644 17.4703C114.644 16.9905 114.524 16.635 114.284 16.404C114.044 16.173 113.697 16.0575 113.244 16.0575H107.02C106.558 16.0575 106.207 16.1774 105.967 16.4174C105.727 16.6484 105.607 16.9905 105.607 17.4436V22.1352C105.607 22.5883 105.727 22.9349 105.967 23.1748C106.207 23.4147 106.558 23.5347 107.02 23.5347H113.244C113.715 23.5347 114.066 23.4147 114.297 23.1748C114.528 22.9349 114.644 22.5883 114.644 22.1352V17.4703ZM135.942 22.2285C135.942 22.7083 135.858 23.2281 135.689 23.7879C135.52 24.3388 135.245 24.8541 134.863 25.334C134.489 25.8049 133.996 26.2003 133.383 26.5202C132.779 26.8401 132.041 27 131.171 27H124.92C124.44 27 123.92 26.9156 123.36 26.7468C122.809 26.5779 122.294 26.3069 121.814 25.9337C121.343 25.5517 120.948 25.0585 120.628 24.4543C120.308 23.8412 120.148 23.0993 120.148 22.2285C120.148 21.7487 120.233 21.2289 120.401 20.6691C120.57 20.1093 120.841 19.5939 121.214 19.123C121.596 18.6432 122.09 18.2433 122.694 17.9234C123.307 17.6036 124.049 17.4436 124.92 17.4436H131.171V20.749H124.92C124.449 20.749 124.084 20.8957 123.827 21.1889C123.569 21.4732 123.44 21.8286 123.44 22.2551C123.44 22.7083 123.587 23.0637 123.88 23.3214C124.182 23.5702 124.538 23.6946 124.946 23.6946H131.171C131.642 23.6946 132.006 23.5524 132.264 23.2681C132.521 22.9837 132.65 22.6283 132.65 22.2018V17.3637C132.65 16.9105 132.508 16.5506 132.224 16.2841C131.948 16.0175 131.597 15.8842 131.171 15.8842H123.56V12.5921H131.171C131.65 12.5921 132.166 12.6766 132.717 12.8454C133.276 13.0142 133.792 13.2897 134.263 13.6717C134.743 14.0449 135.142 14.5381 135.462 15.1512C135.782 15.7554 135.942 16.4929 135.942 17.3637V22.2285ZM154.708 22.1352C154.708 22.7305 154.633 23.2681 154.482 23.7479C154.331 24.2188 154.131 24.6365 153.882 25.0008C153.633 25.3562 153.344 25.6627 153.016 25.9204C152.687 26.1692 152.34 26.3736 151.976 26.5335C151.621 26.6934 151.256 26.8134 150.883 26.8934C150.519 26.9645 150.172 27 149.844 27H143.593C142.997 27 142.464 26.9245 141.993 26.7734C141.522 26.6224 141.105 26.4224 140.74 26.1736C140.385 25.916 140.078 25.6227 139.821 25.294C139.572 24.9652 139.367 24.6231 139.208 24.2677C139.048 23.9034 138.928 23.5391 138.848 23.1748C138.777 22.8016 138.741 22.4551 138.741 22.1352V17.4436C138.741 16.5551 138.901 15.8043 139.221 15.1912C139.55 14.5692 139.954 14.0671 140.434 13.6851C140.922 13.2941 141.451 13.0142 142.02 12.8454C142.588 12.6766 143.113 12.5921 143.593 12.5921H149.844V16.0575H143.619C143.157 16.0575 142.806 16.1774 142.566 16.4174C142.326 16.6484 142.206 16.9905 142.206 17.4436V22.1085C142.206 22.5795 142.322 22.9349 142.553 23.1748C142.793 23.4147 143.139 23.5347 143.593 23.5347H149.844C150.314 23.5347 150.665 23.4147 150.896 23.1748C151.127 22.9349 151.243 22.5883 151.243 22.1352V6.50112H154.708V22.1352Z" fill="black"/>
<path fill-rule="evenodd" clip-rule="evenodd" d="M26.0112 18.0054L8.04541 7.63281L8.04541 12.2778L0 7.63281L-9.06819e-07 28.3784L8.04541 23.7334L8.04541 28.3784L26.0112 18.0054ZM8.04541 21.4238L8.04541 23.7334L10.0454 22.5786L10.0454 24.9141L22.0112 18.0054L10.0454 11.0972L10.0454 13.4326L8.04541 12.2778L8.04541 14.5874L2 11.0972L2 14.0225L0.0112302 13.0283L0.0112298 23.0283L2 22.0342L2 24.9141L8.04541 21.4238ZM8.04541 19.0112L2 22.0342L2 14.0225L8.04541 17.0454L8.04541 19.0112ZM8.04541 19.0112L10.0112 18.0283L8.04541 17.0454L8.04541 14.5874L10.0454 15.7422L10.0454 20.269L8.04541 21.4238L8.04541 19.0112ZM10.0454 20.269L13.9658 18.0054L10.0454 15.7422L10.0454 13.4326L17.9658 18.0054L10.0454 22.5786L10.0454 20.269Z" fill="black"/>
</svg>
