<svg width="32" height="32" viewBox="0 0 32 32" fill="none" xmlns="http://www.w3.org/2000/svg">
<path d="M15.9999 15.9667C14.5333 15.9667 13.3333 15.5 12.3999 14.5667C11.4666 13.6333 10.9999 12.4333 10.9999 10.9667C10.9999 9.49999 11.4666 8.29999 12.3999 7.36666C13.3333 6.43333 14.5333 5.96666 15.9999 5.96666C17.4666 5.96666 18.6666 6.43333 19.5999 7.36666C20.5333 8.29999 20.9999 9.49999 20.9999 10.9667C20.9999 12.4333 20.5333 13.6333 19.5999 14.5667C18.6666 15.5 17.4666 15.9667 15.9999 15.9667ZM5.33325 26.6667V23.5333C5.33325 22.6889 5.54436 21.9667 5.96659 21.3667C6.38881 20.7667 6.93325 20.3111 7.59992 20C9.08881 19.3333 10.5166 18.8333 11.8833 18.5C13.2499 18.1667 14.6221 18 15.9999 18C17.3777 18 18.7444 18.1722 20.0999 18.5167C21.4555 18.8611 22.8777 19.3555 24.3666 20C25.0555 20.3111 25.611 20.7667 26.0333 21.3667C26.4555 21.9667 26.6666 22.6889 26.6666 23.5333V26.6667H5.33325ZM7.33325 24.6667H24.6666V23.5333C24.6666 23.1778 24.561 22.8389 24.3499 22.5167C24.1388 22.1944 23.8777 21.9555 23.5666 21.8C22.1444 21.1111 20.8444 20.6389 19.6666 20.3833C18.4888 20.1278 17.2666 20 15.9999 20C14.7333 20 13.4999 20.1278 12.2999 20.3833C11.0999 20.6389 9.79992 21.1111 8.39992 21.8C8.08881 21.9555 7.83325 22.1944 7.63325 22.5167C7.43325 22.8389 7.33325 23.1778 7.33325 23.5333V24.6667ZM15.9999 13.9667C16.8666 13.9667 17.5833 13.6833 18.1499 13.1167C18.7166 12.55 18.9999 11.8333 18.9999 10.9667C18.9999 10.1 18.7166 9.38333 18.1499 8.81666C17.5833 8.24999 16.8666 7.96666 15.9999 7.96666C15.1333 7.96666 14.4166 8.24999 13.8499 8.81666C13.2833 9.38333 12.9999 10.1 12.9999 10.9667C12.9999 11.8333 13.2833 12.55 13.8499 13.1167C14.4166 13.6833 15.1333 13.9667 15.9999 13.9667Z" fill="white"/>
</svg>
